G04*
G04 #@! TF.GenerationSoftware,Altium Limited,Altium Designer,24.2.2 (26)*
G04*
G04 Layer_Color=16711935*
%FSLAX25Y25*%
%MOIN*%
G70*
G04*
G04 #@! TF.SameCoordinates,53DEB4DB-F542-4CE3-904C-AAE6CCE40F42*
G04*
G04*
G04 #@! TF.FilePolarity,Negative*
G04*
G01*
G75*
%ADD13R,0.04737X0.03950*%
%ADD14R,0.00800X0.00800*%
%ADD15C,0.07099*%
G04:AMPARAMS|DCode=16|XSize=70.99mil|YSize=70.99mil|CornerRadius=19.75mil|HoleSize=0mil|Usage=FLASHONLY|Rotation=270.000|XOffset=0mil|YOffset=0mil|HoleType=Round|Shape=RoundedRectangle|*
%AMROUNDEDRECTD16*
21,1,0.07099,0.03150,0,0,270.0*
21,1,0.03150,0.07099,0,0,270.0*
1,1,0.03950,-0.01575,-0.01575*
1,1,0.03950,-0.01575,0.01575*
1,1,0.03950,0.01575,0.01575*
1,1,0.03950,0.01575,-0.01575*
%
%ADD16ROUNDEDRECTD16*%
%ADD17R,0.06181X0.06181*%
%ADD18C,0.06181*%
%ADD19C,0.06902*%
%ADD20R,0.06902X0.06902*%
%ADD21C,0.05800*%
%ADD22C,0.18517*%
%ADD23C,0.02769*%
%ADD43R,0.10827X0.10827*%
%ADD44R,0.03272X0.00942*%
G04:AMPARAMS|DCode=45|XSize=32.72mil|YSize=9.42mil|CornerRadius=4.71mil|HoleSize=0mil|Usage=FLASHONLY|Rotation=180.000|XOffset=0mil|YOffset=0mil|HoleType=Round|Shape=RoundedRectangle|*
%AMROUNDEDRECTD45*
21,1,0.03272,0.00000,0,0,180.0*
21,1,0.02330,0.00942,0,0,180.0*
1,1,0.00942,-0.01165,0.00000*
1,1,0.00942,0.01165,0.00000*
1,1,0.00942,0.01165,0.00000*
1,1,0.00942,-0.01165,0.00000*
%
%ADD45ROUNDEDRECTD45*%
G04:AMPARAMS|DCode=46|XSize=9.42mil|YSize=32.72mil|CornerRadius=4.71mil|HoleSize=0mil|Usage=FLASHONLY|Rotation=180.000|XOffset=0mil|YOffset=0mil|HoleType=Round|Shape=RoundedRectangle|*
%AMROUNDEDRECTD46*
21,1,0.00942,0.02330,0,0,180.0*
21,1,0.00000,0.03272,0,0,180.0*
1,1,0.00942,0.00000,0.01165*
1,1,0.00942,0.00000,0.01165*
1,1,0.00942,0.00000,-0.01165*
1,1,0.00942,0.00000,-0.01165*
%
%ADD46ROUNDEDRECTD46*%
%ADD48R,0.03963X0.03773*%
%ADD53R,0.03591X0.04166*%
%ADD54R,0.03775X0.03591*%
%ADD55R,0.03418X0.03175*%
%ADD56R,0.04453X0.03591*%
%ADD62R,0.04182X0.04553*%
%ADD63R,0.04553X0.04182*%
%ADD67R,0.03591X0.04453*%
G04:AMPARAMS|DCode=69|XSize=37.92mil|YSize=34mil|CornerRadius=7.25mil|HoleSize=0mil|Usage=FLASHONLY|Rotation=270.000|XOffset=0mil|YOffset=0mil|HoleType=Round|Shape=RoundedRectangle|*
%AMROUNDEDRECTD69*
21,1,0.03792,0.01950,0,0,270.0*
21,1,0.02342,0.03400,0,0,270.0*
1,1,0.01450,-0.00975,-0.01171*
1,1,0.01450,-0.00975,0.01171*
1,1,0.01450,0.00975,0.01171*
1,1,0.01450,0.00975,-0.01171*
%
%ADD69ROUNDEDRECTD69*%
%ADD70R,0.04540X0.04540*%
%ADD71R,0.01299X0.01772*%
%ADD72R,0.01772X0.01299*%
%ADD73R,0.04343X0.04540*%
%ADD74R,0.11430X0.11036*%
%ADD75R,0.09068X0.09461*%
%ADD76R,0.09068X0.11430*%
%ADD77R,0.09068X0.08674*%
%ADD78R,0.03556X0.04147*%
%ADD79R,0.04147X0.03556*%
%ADD80R,0.03950X0.04737*%
%ADD81R,0.04540X0.03950*%
D13*
X14393Y133882D02*
D03*
Y139787D02*
D03*
X119025Y103453D02*
D03*
Y97547D02*
D03*
D14*
X55500Y31614D02*
D03*
Y59173D02*
D03*
X42843Y160972D02*
D03*
Y133413D02*
D03*
D15*
X23500Y16000D02*
D03*
D16*
Y26000D02*
D03*
D17*
X99500Y157500D02*
D03*
D18*
X109500D02*
D03*
X119500D02*
D03*
X129500D02*
D03*
X139500D02*
D03*
X149500D02*
D03*
D19*
X85000Y26000D02*
D03*
Y36000D02*
D03*
Y46000D02*
D03*
Y56000D02*
D03*
Y66000D02*
D03*
Y76000D02*
D03*
Y86000D02*
D03*
Y96000D02*
D03*
Y106000D02*
D03*
Y116000D02*
D03*
Y126000D02*
D03*
Y146000D02*
D03*
X6500Y124500D02*
D03*
Y114500D02*
D03*
Y104500D02*
D03*
Y94500D02*
D03*
Y84500D02*
D03*
Y74500D02*
D03*
Y64500D02*
D03*
Y54500D02*
D03*
Y44500D02*
D03*
Y34500D02*
D03*
Y24500D02*
D03*
Y14500D02*
D03*
X85000Y16000D02*
D03*
Y136000D02*
D03*
Y156000D02*
D03*
D20*
Y166000D02*
D03*
D21*
X94000Y90500D02*
D03*
X118500Y91000D02*
D03*
X94000Y104949D02*
D03*
X70000Y148000D02*
D03*
X148000Y108000D02*
D03*
X98500Y43000D02*
D03*
X131000Y29000D02*
D03*
X65500Y110500D02*
D03*
X50000Y113000D02*
D03*
X61500Y102000D02*
D03*
X37500Y37000D02*
D03*
X26000Y130000D02*
D03*
X21500Y51500D02*
D03*
X17500Y121000D02*
D03*
D22*
X12000Y173000D02*
D03*
X145500D02*
D03*
Y20000D02*
D03*
D23*
X107000Y25000D02*
D03*
X131500Y110500D02*
D03*
X133000Y119000D02*
D03*
X135500Y123500D02*
D03*
D43*
X120500Y119500D02*
D03*
D44*
X128140Y123437D02*
D03*
D45*
Y121468D02*
D03*
Y119500D02*
D03*
Y117532D02*
D03*
Y115563D02*
D03*
X112860D02*
D03*
Y117532D02*
D03*
Y119500D02*
D03*
Y121468D02*
D03*
Y123437D02*
D03*
D46*
X124437Y111860D02*
D03*
X122468D02*
D03*
X120500D02*
D03*
X118532D02*
D03*
X116563D02*
D03*
Y127140D02*
D03*
X118532D02*
D03*
X120500D02*
D03*
X122468D02*
D03*
X124437D02*
D03*
D48*
X114858Y17951D02*
D03*
X109142D02*
D03*
D53*
X140000Y106281D02*
D03*
Y100951D02*
D03*
D54*
X108361Y90000D02*
D03*
X102639D02*
D03*
D55*
X139000Y119464D02*
D03*
Y114536D02*
D03*
D56*
X134978Y129500D02*
D03*
X140022D02*
D03*
D62*
X128515Y100850D02*
D03*
Y94150D02*
D03*
X139500Y85150D02*
D03*
Y91850D02*
D03*
D63*
X102650Y100500D02*
D03*
X109350D02*
D03*
D67*
X148000Y120522D02*
D03*
Y115478D02*
D03*
D69*
X127256Y18000D02*
D03*
X121744D02*
D03*
X106756Y36500D02*
D03*
X101244D02*
D03*
D70*
X106461Y29987D02*
D03*
X101342D02*
D03*
D71*
X112575Y34421D02*
D03*
X114268D02*
D03*
X115961D02*
D03*
X117654D02*
D03*
X119346D02*
D03*
X121039D02*
D03*
X122732D02*
D03*
X124425D02*
D03*
Y24579D02*
D03*
X122732D02*
D03*
X121039D02*
D03*
X119346D02*
D03*
X117654D02*
D03*
X115961D02*
D03*
X114268D02*
D03*
X112575D02*
D03*
D72*
Y32039D02*
D03*
Y30347D02*
D03*
Y28653D02*
D03*
X124425Y32039D02*
D03*
Y30347D02*
D03*
Y28653D02*
D03*
Y26961D02*
D03*
X112575D02*
D03*
D73*
X116039Y140603D02*
D03*
X120961D02*
D03*
X107039Y133500D02*
D03*
X111961D02*
D03*
D74*
X58453Y80039D02*
D03*
X39890Y112547D02*
D03*
D75*
X39555Y27283D02*
D03*
X71445Y34764D02*
D03*
X58787Y165303D02*
D03*
X26898Y157823D02*
D03*
D76*
X39555Y63898D02*
D03*
X58787Y128689D02*
D03*
D77*
X71445Y24134D02*
D03*
X26898Y168453D02*
D03*
D78*
X111539Y147116D02*
D03*
X116461D02*
D03*
X104961Y143000D02*
D03*
X100039D02*
D03*
D79*
X15968Y146399D02*
D03*
Y151320D02*
D03*
X26000Y136539D02*
D03*
Y141461D02*
D03*
X69500Y156039D02*
D03*
Y160961D02*
D03*
X62000Y148539D02*
D03*
Y153461D02*
D03*
X68000Y126039D02*
D03*
Y130961D02*
D03*
Y116180D02*
D03*
Y121101D02*
D03*
X127500Y135539D02*
D03*
Y140461D02*
D03*
X136000Y141461D02*
D03*
Y136539D02*
D03*
D80*
X103953Y124000D02*
D03*
X98047D02*
D03*
D81*
X148000Y133461D02*
D03*
Y128539D02*
D03*
M02*
