G04*
G04 #@! TF.GenerationSoftware,Altium Limited,Altium Designer,24.2.2 (26)*
G04*
G04 Layer_Physical_Order=4*
G04 Layer_Color=16711680*
%FSLAX25Y25*%
%MOIN*%
G70*
G04*
G04 #@! TF.SameCoordinates,53DEB4DB-F542-4CE3-904C-AAE6CCE40F42*
G04*
G04*
G04 #@! TF.FilePolarity,Positive*
G04*
G01*
G75*
%ADD17R,0.06181X0.06181*%
%ADD18C,0.06181*%
%ADD24C,0.01000*%
%ADD25R,0.03937X0.03150*%
%ADD26C,0.06299*%
G04:AMPARAMS|DCode=27|XSize=62.99mil|YSize=62.99mil|CornerRadius=15.75mil|HoleSize=0mil|Usage=FLASHONLY|Rotation=270.000|XOffset=0mil|YOffset=0mil|HoleType=Round|Shape=RoundedRectangle|*
%AMROUNDEDRECTD27*
21,1,0.06299,0.03150,0,0,270.0*
21,1,0.03150,0.06299,0,0,270.0*
1,1,0.03150,-0.01575,-0.01575*
1,1,0.03150,-0.01575,0.01575*
1,1,0.03150,0.01575,0.01575*
1,1,0.03150,0.01575,-0.01575*
%
%ADD27ROUNDEDRECTD27*%
%ADD28C,0.06102*%
%ADD29R,0.06102X0.06102*%
%ADD30C,0.05000*%
%ADD31C,0.17717*%
%ADD32C,0.01968*%
%ADD43R,0.10827X0.10827*%
%ADD44R,0.03272X0.00942*%
G04:AMPARAMS|DCode=45|XSize=32.72mil|YSize=9.42mil|CornerRadius=4.71mil|HoleSize=0mil|Usage=FLASHONLY|Rotation=180.000|XOffset=0mil|YOffset=0mil|HoleType=Round|Shape=RoundedRectangle|*
%AMROUNDEDRECTD45*
21,1,0.03272,0.00000,0,0,180.0*
21,1,0.02330,0.00942,0,0,180.0*
1,1,0.00942,-0.01165,0.00000*
1,1,0.00942,0.01165,0.00000*
1,1,0.00942,0.01165,0.00000*
1,1,0.00942,-0.01165,0.00000*
%
%ADD45ROUNDEDRECTD45*%
G04:AMPARAMS|DCode=46|XSize=9.42mil|YSize=32.72mil|CornerRadius=4.71mil|HoleSize=0mil|Usage=FLASHONLY|Rotation=180.000|XOffset=0mil|YOffset=0mil|HoleType=Round|Shape=RoundedRectangle|*
%AMROUNDEDRECTD46*
21,1,0.00942,0.02330,0,0,180.0*
21,1,0.00000,0.03272,0,0,180.0*
1,1,0.00942,0.00000,0.01165*
1,1,0.00942,0.00000,0.01165*
1,1,0.00942,0.00000,-0.01165*
1,1,0.00942,0.00000,-0.01165*
%
%ADD46ROUNDEDRECTD46*%
G04:AMPARAMS|DCode=47|XSize=29.92mil|YSize=26mil|CornerRadius=3.25mil|HoleSize=0mil|Usage=FLASHONLY|Rotation=270.000|XOffset=0mil|YOffset=0mil|HoleType=Round|Shape=RoundedRectangle|*
%AMROUNDEDRECTD47*
21,1,0.02992,0.01950,0,0,270.0*
21,1,0.02342,0.02600,0,0,270.0*
1,1,0.00650,-0.00975,-0.01171*
1,1,0.00650,-0.00975,0.01171*
1,1,0.00650,0.00975,0.01171*
1,1,0.00650,0.00975,-0.01171*
%
%ADD47ROUNDEDRECTD47*%
%ADD48R,0.03963X0.03773*%
%ADD49R,0.03740X0.03740*%
%ADD50R,0.00906X0.01378*%
%ADD51R,0.01378X0.00906*%
%ADD52R,0.03543X0.03740*%
%ADD53R,0.03591X0.04166*%
%ADD54R,0.03775X0.03591*%
%ADD55R,0.03418X0.03175*%
%ADD56R,0.04453X0.03591*%
%ADD57R,0.10630X0.10236*%
%ADD58R,0.08268X0.08661*%
%ADD59R,0.08268X0.10630*%
%ADD60R,0.08268X0.07874*%
%ADD61R,0.02756X0.03347*%
%ADD62R,0.04182X0.04553*%
%ADD63R,0.04553X0.04182*%
%ADD64R,0.03347X0.02756*%
%ADD65R,0.03150X0.03937*%
%ADD66R,0.03740X0.03150*%
%ADD67R,0.03591X0.04453*%
%ADD68C,0.00906*%
D17*
X99500Y157500D02*
D03*
D18*
X109500D02*
D03*
X119500D02*
D03*
X129500D02*
D03*
X139500D02*
D03*
X149500D02*
D03*
D24*
X120961Y134070D02*
Y140603D01*
X119591Y141973D02*
Y142613D01*
X118048Y144156D02*
X119591Y142613D01*
X109117Y140603D02*
X116039D01*
X130461Y132000D02*
X131165D01*
X135705Y136539D02*
X136000D01*
X131165Y132000D02*
X135705Y136539D01*
X136000Y141461D02*
X139705D01*
X147705Y133461D01*
X118502Y109467D02*
Y111831D01*
X118532Y111860D01*
X109536Y100500D02*
X118502Y109467D01*
X96414Y85414D02*
X98500Y87500D01*
X92086Y85414D02*
X96414D01*
X90000Y87500D02*
X92086Y85414D01*
X98500Y96536D02*
X102464Y100500D01*
X98500Y87500D02*
Y96536D01*
X102464Y100500D02*
X102650D01*
X94000Y90500D02*
Y98000D01*
X96000Y100000D01*
Y100038D01*
X111753Y115563D02*
X112860D01*
X96000Y100038D02*
X105291Y109329D01*
X105519D02*
X111753Y115563D01*
X105291Y109329D02*
X105519D01*
X118500Y91000D02*
X123000Y95500D01*
X94449Y104949D02*
X107032Y117532D01*
X94000Y104949D02*
X94449D01*
X145199Y106281D02*
X146918Y108000D01*
X140000Y106281D02*
X145199D01*
X146918Y108000D02*
X148000D01*
X138205Y100752D02*
X139500Y102047D01*
X128515Y100850D02*
X128613Y100752D01*
X65500Y110802D02*
X68000Y113302D01*
X65500Y110500D02*
Y110802D01*
X68000Y113302D02*
Y116180D01*
Y121101D02*
Y126039D01*
X55945Y128689D02*
X58217Y130961D01*
X61059D02*
X68000D01*
X58787Y128689D02*
X61059Y130961D01*
X129446Y123437D02*
X129474Y123466D01*
Y124376D02*
X131516Y126417D01*
X137738D01*
X129474Y123466D02*
Y124376D01*
X128535Y123437D02*
X129446D01*
X133000Y123500D02*
X135500D01*
X128564Y121497D02*
X130998D01*
X133000Y123500D01*
X132738Y119000D02*
X133000D01*
X128535Y119500D02*
X132238D01*
X132738Y119000D01*
X130051Y117502D02*
X132553Y115000D01*
X134347D02*
X137723Y118376D01*
X132553Y115000D02*
X134347D01*
X131500Y110500D02*
X131685Y110685D01*
X133185D01*
X137912Y113448D02*
X139000Y114536D01*
X135948Y113448D02*
X137912D01*
X133185Y110685D02*
X135948Y113448D01*
X137126Y111465D02*
X143986D01*
X133162Y107500D02*
X137126Y111465D01*
X129474Y112525D02*
Y115534D01*
Y112525D02*
X131500Y110500D01*
X128535Y115563D02*
X129446D01*
X129474Y115534D01*
X128564Y117502D02*
X130051D01*
X137723Y118376D02*
X137912D01*
X139000Y119464D01*
X116461Y154047D02*
X119500Y157087D01*
Y157500D01*
X116461Y147116D02*
Y154047D01*
X111423Y147000D02*
X111539Y147116D01*
X104961Y143295D02*
X108665Y147000D01*
X111423D01*
X104961Y143000D02*
Y143295D01*
X111539Y146821D02*
X114205Y144156D01*
X111539Y146821D02*
Y147116D01*
X119591Y141973D02*
X120961Y140603D01*
X114205Y144156D02*
X118048D01*
X99500Y157500D02*
X100039Y156961D01*
Y143000D02*
Y156961D01*
X108553Y140039D02*
X109117Y140603D01*
X100039Y142705D02*
Y143000D01*
X102705Y140039D02*
X108553D01*
X100039Y142705D02*
X102705Y140039D01*
X102566Y134870D02*
X105669D01*
X85976Y151460D02*
X102566Y134870D01*
X85976Y151460D02*
Y155024D01*
X85000Y156000D02*
X85976Y155024D01*
X105669Y134870D02*
X107039Y133500D01*
X96449Y170551D02*
X109500Y157500D01*
X81327Y170551D02*
X96449D01*
X58787Y165303D02*
X64862D01*
X69205Y160961D01*
X69500D01*
X61705Y153461D02*
X62000D01*
X58787Y156378D02*
Y165303D01*
Y156378D02*
X61705Y153461D01*
X14393Y145119D02*
X15672Y146399D01*
X14393Y139787D02*
Y145119D01*
X15672Y146399D02*
X15968D01*
X14786Y139787D02*
X20484Y134090D01*
X14393Y139787D02*
X14786D01*
X20484Y127516D02*
Y134090D01*
X23086Y124914D02*
X26571D01*
X20484Y127516D02*
X23086Y124914D01*
X45539Y148539D02*
X62000D01*
X37500Y140500D02*
X45539Y148539D01*
X37500Y135843D02*
Y140500D01*
X26571Y124914D02*
X37500Y135843D01*
X70843Y143186D02*
X74492Y146835D01*
X70000Y148000D02*
Y155539D01*
X69500Y156039D02*
X70000Y155539D01*
X26000Y141461D02*
Y156925D01*
X26898Y157823D01*
X26000Y130000D02*
Y136539D01*
X122871Y100000D02*
X123000D01*
X119025Y103453D02*
X119419D01*
X122871Y100000D01*
X123000Y95500D02*
Y100000D01*
X112361Y86000D02*
X124000D01*
X128515Y90514D01*
X109748Y88613D02*
X112361Y86000D01*
X128515Y90514D02*
Y94150D01*
X109748Y88613D02*
Y88705D01*
X108361Y90000D02*
X108453D01*
X109748Y88705D01*
X124669Y15216D02*
X127256Y17804D01*
X117688Y15216D02*
X124669D01*
X127256Y17804D02*
Y18000D01*
X114953Y17951D02*
X117688Y15216D01*
X114858Y17951D02*
X114953D01*
X147402Y146512D02*
X152500Y141414D01*
Y119015D02*
Y141414D01*
Y119015D02*
X153500Y118015D01*
X152500Y111942D02*
X153500Y112942D01*
Y118015D01*
X150329Y118992D02*
X151083Y118238D01*
X148765Y110401D02*
X151083Y112718D01*
Y118238D01*
X148765Y108765D02*
Y110401D01*
X139500Y92036D02*
X152500Y105036D01*
Y111942D01*
X148000Y108000D02*
X148765Y108765D01*
X144917Y125752D02*
X147705Y128539D01*
X148000D01*
X147705Y133461D02*
X148000D01*
Y120288D02*
Y120522D01*
Y120288D02*
X149295Y118992D01*
X150329D01*
X139500Y107665D02*
X139835Y108000D01*
X18000Y76000D02*
X26000D01*
X6500Y64500D02*
X18000Y76000D01*
X110000Y31500D02*
X111153Y30347D01*
X109500Y32651D02*
X110000Y32151D01*
Y31500D02*
Y32151D01*
X109500Y32651D02*
Y42000D01*
X102500Y49000D02*
X109500Y42000D01*
X6000Y16000D02*
X23500D01*
X91037Y34537D02*
Y43951D01*
X83564Y31000D02*
X87500D01*
X91037Y34537D01*
X80062Y27499D02*
X83564Y31000D01*
X28500Y11000D02*
X68203D01*
X91037Y43951D02*
X96086Y49000D01*
X68203Y11000D02*
X80062Y22860D01*
X96086Y49000D02*
X102500D01*
X80062Y22860D02*
Y27499D01*
X106756Y29728D02*
Y36500D01*
X101217Y42235D02*
X106756Y36696D01*
Y36500D02*
Y36696D01*
X99265Y42235D02*
X101217D01*
X98500Y43000D02*
X99265Y42235D01*
X23500Y16000D02*
X28500Y11000D01*
X6000Y24232D02*
X6232Y24000D01*
X16500D01*
X107000Y25000D02*
X110000D01*
X111555Y26555D02*
X112500D01*
X110000Y25000D02*
X111555Y26555D01*
X97183Y119500D02*
X112465D01*
X92034Y124649D02*
Y125402D01*
X106756Y29728D02*
X107831Y28653D01*
X101244Y30283D02*
X101539Y29987D01*
X101244Y30283D02*
Y36500D01*
X100169Y28617D02*
X101539Y29987D01*
X85000Y16000D02*
X97617Y28617D01*
X100169D01*
X103500Y26387D02*
X106461Y29348D01*
X103500Y23000D02*
Y26387D01*
Y23000D02*
X104500Y22000D01*
X109996D01*
X113847Y28653D02*
X115347D01*
X116500Y27500D01*
X117500Y26500D01*
X116008Y24626D02*
Y27008D01*
X116500Y27500D01*
X117500Y24732D02*
Y26500D01*
X121744Y18000D02*
Y18196D01*
X124425Y24437D02*
X127256Y21606D01*
X124425Y24437D02*
Y24579D01*
X127256Y18000D02*
Y21606D01*
X124425Y26961D02*
X127878D01*
X129918Y29000D01*
X131000D01*
X122000Y27000D02*
X124386D01*
X124425Y26961D01*
X121087Y24626D02*
Y26087D01*
X122000Y27000D01*
X122732Y24579D02*
X124425D01*
Y26961D01*
Y28653D01*
Y30347D01*
Y32039D01*
X85000Y136000D02*
X86194D01*
X96725Y125469D02*
X96972D01*
X86194Y136000D02*
X96725Y125469D01*
X98047Y124000D02*
Y124394D01*
X96972Y125469D02*
X98047Y124394D01*
X128679Y146512D02*
X147402D01*
X128795Y141461D02*
X136000D01*
X122468Y107082D02*
X128515Y101036D01*
X112488Y97547D02*
X119025D01*
X128515Y100850D02*
Y101036D01*
X119025Y103453D02*
Y106804D01*
X139500Y102047D02*
Y102335D01*
X146704Y113752D02*
X148000Y115047D01*
X128613Y100752D02*
X138205D01*
X148000Y115047D02*
Y115478D01*
X146704Y117008D02*
X148000Y115712D01*
Y115478D02*
Y115712D01*
X66657Y106000D02*
X75136Y114479D01*
Y122572D01*
X90000Y87500D02*
Y121000D01*
X102825Y100489D02*
X113801Y111465D01*
X86885Y130551D02*
X92034Y125402D01*
Y124649D02*
X97183Y119500D01*
X85000Y126000D02*
X90000Y121000D01*
X75136Y122572D02*
X83115Y130551D01*
X109536Y100500D02*
X112488Y97547D01*
X122468Y130803D02*
X127205Y135539D01*
X124539Y138205D02*
X127205Y135539D01*
X124539Y138205D02*
Y142372D01*
X128679Y146512D01*
X127795Y140461D02*
X128795Y141461D01*
X127500Y140461D02*
X127795D01*
X128402Y107500D02*
X133162D01*
X124437Y110554D02*
Y111465D01*
X124466Y110526D02*
X125376D01*
X128402Y107500D01*
X124437Y110554D02*
X124466Y110526D01*
X128535Y117532D02*
X128564Y117502D01*
X146274Y113752D02*
X146704D01*
X144917Y117762D02*
X145671Y117008D01*
X146704D01*
X143986Y111465D02*
X146274Y113752D01*
X124437Y127535D02*
X125996D01*
X134718Y129500D02*
X134978D01*
X125996Y127535D02*
X127961Y129500D01*
X130461Y132000D01*
X133422Y130796D02*
X134718Y129500D01*
X127961D02*
X134718D01*
X128535Y121468D02*
X128564Y121497D01*
X138492Y127171D02*
Y128205D01*
X139788Y129500D01*
X144917Y117762D02*
Y125752D01*
X137738Y126417D02*
X138492Y127171D01*
X139788Y129500D02*
X140022D01*
X108409Y134870D02*
Y135510D01*
X109557Y136658D01*
X114364D01*
X107039Y127952D02*
Y133500D01*
X116563Y123437D02*
Y127535D01*
X118532D02*
Y132490D01*
X116534Y127564D02*
X116563Y127535D01*
X107039Y127952D02*
X111554Y123437D01*
X107039Y133500D02*
X108409Y134870D01*
X114364Y136658D02*
X118532Y132490D01*
X116534Y127564D02*
Y128927D01*
X111961Y133500D02*
X116534Y128927D01*
X122468Y127535D02*
Y130803D01*
X120500Y127535D02*
Y133609D01*
X120961Y134070D01*
X107032Y117532D02*
X112465D01*
X122468Y107082D02*
Y111465D01*
X119025Y106804D02*
X120500Y108279D01*
Y111465D01*
X113801D02*
X116563D01*
Y123437D02*
X120500Y119500D01*
Y111465D02*
Y119500D01*
X103953Y123606D02*
X106091Y121468D01*
X112465D01*
X111554Y123437D02*
X112465D01*
X103953Y123606D02*
Y124000D01*
X56000Y106000D02*
X66657D01*
X26000Y76000D02*
X56000Y106000D01*
X139500Y91850D02*
Y92036D01*
X135552Y86927D02*
X137909D01*
X139500Y85336D01*
X128515Y93964D02*
X135552Y86927D01*
X139500Y85150D02*
Y85336D01*
X56500Y164551D02*
Y164748D01*
X55945Y165303D02*
X56500Y164748D01*
X50000Y113000D02*
Y134014D01*
X61500Y102000D02*
X71445Y92055D01*
X102639Y90000D02*
Y100489D01*
X14000Y124500D02*
Y133489D01*
Y124500D02*
X17500Y121000D01*
X74492Y163716D02*
X81327Y170551D01*
X74492Y146835D02*
Y163716D01*
X14000Y133489D02*
X14393Y133882D01*
X24055Y157626D02*
Y157823D01*
X18627Y152198D02*
X24055Y157626D01*
X59173Y143186D02*
X70843D01*
X50000Y134014D02*
X59173Y143186D01*
X15968Y151320D02*
X16846Y152198D01*
X18627D01*
X83115Y130551D02*
X86885D01*
X16500Y24000D02*
X17425Y24925D01*
X22425D01*
X37500Y29339D02*
X39555Y27283D01*
X37500Y29339D02*
Y37000D01*
X70500Y35709D02*
X71445Y34764D01*
Y92055D01*
X22425Y24925D02*
X23500Y26000D01*
D25*
X14393Y133882D02*
D03*
Y139787D02*
D03*
X119025Y103453D02*
D03*
Y97547D02*
D03*
D26*
X23500Y16000D02*
D03*
D27*
Y26000D02*
D03*
D28*
X85000D02*
D03*
Y36000D02*
D03*
Y46000D02*
D03*
Y56000D02*
D03*
Y66000D02*
D03*
Y76000D02*
D03*
Y86000D02*
D03*
Y96000D02*
D03*
Y106000D02*
D03*
Y116000D02*
D03*
Y126000D02*
D03*
Y146000D02*
D03*
X6500Y124500D02*
D03*
Y114500D02*
D03*
Y104500D02*
D03*
Y94500D02*
D03*
Y84500D02*
D03*
Y74500D02*
D03*
Y64500D02*
D03*
Y54500D02*
D03*
Y44500D02*
D03*
Y34500D02*
D03*
Y24500D02*
D03*
Y14500D02*
D03*
X85000Y16000D02*
D03*
Y136000D02*
D03*
Y156000D02*
D03*
D29*
Y166000D02*
D03*
D30*
X94000Y90500D02*
D03*
X118500Y91000D02*
D03*
X94000Y104949D02*
D03*
X70000Y148000D02*
D03*
X148000Y108000D02*
D03*
X98500Y43000D02*
D03*
X131000Y29000D02*
D03*
X65500Y110500D02*
D03*
X50000Y113000D02*
D03*
X61500Y102000D02*
D03*
X37500Y37000D02*
D03*
X26000Y130000D02*
D03*
X21500Y51500D02*
D03*
X17500Y121000D02*
D03*
D31*
X12000Y173000D02*
D03*
X145500D02*
D03*
Y20000D02*
D03*
D32*
X107000Y25000D02*
D03*
X131500Y110500D02*
D03*
X133000Y119000D02*
D03*
X135500Y123500D02*
D03*
D43*
X120500Y119500D02*
D03*
D44*
X128140Y123437D02*
D03*
D45*
Y121468D02*
D03*
Y119500D02*
D03*
Y117532D02*
D03*
Y115563D02*
D03*
X112860D02*
D03*
Y117532D02*
D03*
Y119500D02*
D03*
Y121468D02*
D03*
Y123437D02*
D03*
D46*
X124437Y111860D02*
D03*
X122468D02*
D03*
X120500D02*
D03*
X118532D02*
D03*
X116563D02*
D03*
Y127140D02*
D03*
X118532D02*
D03*
X120500D02*
D03*
X122468D02*
D03*
X124437D02*
D03*
D47*
X127256Y18000D02*
D03*
X121744D02*
D03*
X106756Y36500D02*
D03*
X101244D02*
D03*
D48*
X114858Y17951D02*
D03*
X109142D02*
D03*
D49*
X106461Y29987D02*
D03*
X101342D02*
D03*
D50*
X112575Y34421D02*
D03*
X114268D02*
D03*
X115961D02*
D03*
X117654D02*
D03*
X119346D02*
D03*
X121039D02*
D03*
X122732D02*
D03*
X124425D02*
D03*
Y24579D02*
D03*
X122732D02*
D03*
X121039D02*
D03*
X119346D02*
D03*
X117654D02*
D03*
X115961D02*
D03*
X114268D02*
D03*
X112575D02*
D03*
D51*
Y32039D02*
D03*
Y30347D02*
D03*
Y28653D02*
D03*
X124425Y32039D02*
D03*
Y30347D02*
D03*
Y28653D02*
D03*
Y26961D02*
D03*
X112575D02*
D03*
D52*
X116039Y140603D02*
D03*
X120961D02*
D03*
X107039Y133500D02*
D03*
X111961D02*
D03*
D53*
X140000Y106281D02*
D03*
Y100951D02*
D03*
D54*
X108361Y90000D02*
D03*
X102639D02*
D03*
D55*
X139000Y119464D02*
D03*
Y114536D02*
D03*
D56*
X134978Y129500D02*
D03*
X140022D02*
D03*
D57*
X58453Y80039D02*
D03*
X39890Y112547D02*
D03*
D58*
X39555Y27283D02*
D03*
X71445Y34764D02*
D03*
X58787Y165303D02*
D03*
X26898Y157823D02*
D03*
D59*
X39555Y63898D02*
D03*
X58787Y128689D02*
D03*
D60*
X71445Y24134D02*
D03*
X26898Y168453D02*
D03*
D61*
X111539Y147116D02*
D03*
X116461D02*
D03*
X104961Y143000D02*
D03*
X100039D02*
D03*
D62*
X128515Y100850D02*
D03*
Y94150D02*
D03*
X139500Y85150D02*
D03*
Y91850D02*
D03*
D63*
X102650Y100500D02*
D03*
X109350D02*
D03*
D64*
X15968Y146399D02*
D03*
Y151320D02*
D03*
X26000Y136539D02*
D03*
Y141461D02*
D03*
X69500Y156039D02*
D03*
Y160961D02*
D03*
X62000Y148539D02*
D03*
Y153461D02*
D03*
X68000Y126039D02*
D03*
Y130961D02*
D03*
Y116180D02*
D03*
Y121101D02*
D03*
X127500Y135539D02*
D03*
Y140461D02*
D03*
X136000Y141461D02*
D03*
Y136539D02*
D03*
D65*
X103953Y124000D02*
D03*
X98047D02*
D03*
D66*
X148000Y133461D02*
D03*
Y128539D02*
D03*
D67*
Y120522D02*
D03*
Y115478D02*
D03*
D68*
X111153Y30347D02*
X112575D01*
X107831Y28653D02*
X112575D01*
X109996Y22000D02*
X112575Y24579D01*
Y28653D02*
X113847D01*
X109303Y18017D02*
X110671Y19385D01*
X109142Y18017D02*
X109303D01*
X110671Y19546D02*
X114268Y23142D01*
Y24579D01*
X110671Y19385D02*
Y19546D01*
X119346Y20594D02*
X121744Y18196D01*
X119346Y20594D02*
Y24579D01*
M02*
