G04*
G04 #@! TF.GenerationSoftware,Altium Limited,Altium Designer,24.2.2 (26)*
G04*
G04 Layer_Color=32896*
%FSLAX25Y25*%
%MOIN*%
G70*
G04*
G04 #@! TF.SameCoordinates,53DEB4DB-F542-4CE3-904C-AAE6CCE40F42*
G04*
G04*
G04 #@! TF.FilePolarity,Positive*
G04*
G01*
G75*
%ADD10C,0.00984*%
%ADD11C,0.00787*%
%ADD12C,0.00602*%
%ADD24C,0.01000*%
%ADD82C,0.00492*%
D10*
X33748Y27283D02*
X33010Y27710D01*
Y26857D01*
X33748Y27283D01*
X65579Y165303D02*
X64841Y165729D01*
Y164877D01*
X65579Y165303D01*
D11*
X112626Y111626D02*
X114594D01*
X112626D02*
Y113594D01*
Y127374D02*
X114594D01*
X112626Y125406D02*
Y127374D01*
X126406Y111626D02*
X128374D01*
Y113594D01*
X126406Y127374D02*
X128374D01*
Y125406D02*
Y127374D01*
X124500Y16819D02*
Y19181D01*
X67311Y40669D02*
Y74921D01*
X43689Y33189D02*
Y57008D01*
X65342Y74921D02*
X67311D01*
X43689D02*
X51563D01*
X43689Y70787D02*
Y74921D01*
X67311Y17835D02*
Y18622D01*
X43689Y17835D02*
Y21378D01*
Y17835D02*
X67311D01*
X31032Y117665D02*
Y151917D01*
X54654Y135579D02*
Y159398D01*
X31032Y117665D02*
X33000D01*
X46780D02*
X54654D01*
Y121799D01*
X31032Y173965D02*
Y174752D01*
X54654Y171209D02*
Y174752D01*
X31032D02*
X54654D01*
X18205Y10409D02*
X28795D01*
X18205D02*
Y31591D01*
X28795D01*
Y10409D02*
Y31591D01*
X104000Y35319D02*
Y37681D01*
D12*
X102459Y136418D02*
X102918Y136878D01*
X103837D01*
X104296Y136418D01*
Y134582D01*
X103837Y134123D01*
X102918D01*
X102459Y134582D01*
X101541D02*
X101082Y134123D01*
X100163D01*
X99704Y134582D01*
Y136418D01*
X100163Y136878D01*
X101082D01*
X101541Y136418D01*
Y135959D01*
X101082Y135500D01*
X99704D01*
X106959Y41418D02*
X107418Y41877D01*
X108337D01*
X108796Y41418D01*
Y39582D01*
X108337Y39123D01*
X107418D01*
X106959Y39582D01*
X104663Y39123D02*
Y41877D01*
X106041Y40500D01*
X104204D01*
X120796Y39377D02*
Y37082D01*
X120337Y36623D01*
X119418D01*
X118959Y37082D01*
Y39377D01*
X118041Y38918D02*
X117582Y39377D01*
X116663D01*
X116204Y38918D01*
Y38459D01*
X116663Y38000D01*
X117122D01*
X116663D01*
X116204Y37541D01*
Y37082D01*
X116663Y36623D01*
X117582D01*
X118041Y37082D01*
X109796Y113898D02*
Y111602D01*
X109337Y111143D01*
X108418D01*
X107959Y111602D01*
Y113898D01*
X105204D02*
X106123Y113438D01*
X107041Y112520D01*
Y111602D01*
X106582Y111143D01*
X105663D01*
X105204Y111602D01*
Y112061D01*
X105663Y112520D01*
X107041D01*
X153173Y136623D02*
Y139377D01*
X151796D01*
X151337Y138918D01*
Y138000D01*
X151796Y137541D01*
X153173D01*
X152255D02*
X151337Y136623D01*
X148582D02*
X150418D01*
X148582Y138459D01*
Y138918D01*
X149041Y139377D01*
X149959D01*
X150418Y138918D01*
X147663D02*
X147204Y139377D01*
X146286D01*
X145827Y138918D01*
Y137082D01*
X146286Y136623D01*
X147204D01*
X147663Y137082D01*
Y138918D01*
X137901Y150934D02*
X135146Y150953D01*
X135136Y149575D01*
X135592Y149113D01*
X136511Y149107D01*
X136973Y149563D01*
X136982Y150941D01*
X136976Y150022D02*
X137888Y149098D01*
X137882Y148179D02*
X137876Y147261D01*
X137879Y147720D01*
X135124Y147739D01*
X135586Y148195D01*
X137407Y145887D02*
X137864Y145424D01*
X137857Y144506D01*
X137395Y144050D01*
X135558Y144062D01*
X135102Y144525D01*
X135108Y145443D01*
X135571Y145899D01*
X136030Y145896D01*
X136486Y145434D01*
X136477Y144056D01*
X128877Y150444D02*
X126122D01*
Y149066D01*
X126582Y148607D01*
X127500D01*
X127959Y149066D01*
Y150444D01*
Y149525D02*
X128877Y148607D01*
Y147689D02*
Y146770D01*
Y147230D01*
X126122D01*
X126582Y147689D01*
Y145393D02*
X126122Y144934D01*
Y144015D01*
X126582Y143556D01*
X127041D01*
X127500Y144015D01*
X127959Y143556D01*
X128418D01*
X128877Y144015D01*
Y144934D01*
X128418Y145393D01*
X127959D01*
X127500Y144934D01*
X127041Y145393D01*
X126582D01*
X127500Y144934D02*
Y144015D01*
X104944Y127122D02*
Y129877D01*
X103566D01*
X103107Y129418D01*
Y128500D01*
X103566Y128041D01*
X104944D01*
X104025D02*
X103107Y127122D01*
X102189D02*
X101270D01*
X101730D01*
Y129877D01*
X102189Y129418D01*
X99893Y129877D02*
X98056D01*
Y129418D01*
X99893Y127582D01*
Y127122D01*
X70622Y115556D02*
X73378D01*
Y116934D01*
X72918Y117393D01*
X72000D01*
X71541Y116934D01*
Y115556D01*
Y116475D02*
X70622Y117393D01*
Y118311D02*
Y119230D01*
Y118770D01*
X73378D01*
X72918Y118311D01*
X73378Y122444D02*
X72918Y121525D01*
X72000Y120607D01*
X71082D01*
X70622Y121066D01*
Y121985D01*
X71082Y122444D01*
X71541D01*
X72000Y121985D01*
Y120607D01*
X70622Y125056D02*
X73378D01*
Y126434D01*
X72918Y126893D01*
X72000D01*
X71541Y126434D01*
Y125056D01*
Y125975D02*
X70622Y126893D01*
Y127811D02*
Y128730D01*
Y128270D01*
X73378D01*
X72918Y127811D01*
X73378Y131944D02*
Y130107D01*
X72000D01*
X72459Y131025D01*
Y131485D01*
X72000Y131944D01*
X71082D01*
X70622Y131485D01*
Y130566D01*
X71082Y130107D01*
X142622Y83556D02*
X145378D01*
Y84934D01*
X144918Y85393D01*
X144000D01*
X143541Y84934D01*
Y83556D01*
Y84475D02*
X142622Y85393D01*
Y86311D02*
Y87230D01*
Y86770D01*
X145378D01*
X144918Y86311D01*
X142622Y89985D02*
X145378D01*
X144000Y88607D01*
Y90444D01*
X59377Y154444D02*
X56622D01*
Y153066D01*
X57082Y152607D01*
X58000D01*
X58459Y153066D01*
Y154444D01*
Y153525D02*
X59377Y152607D01*
Y151689D02*
Y150770D01*
Y151230D01*
X56622D01*
X57082Y151689D01*
Y149393D02*
X56622Y148934D01*
Y148015D01*
X57082Y147556D01*
X57541D01*
X58000Y148015D01*
Y148475D01*
Y148015D01*
X58459Y147556D01*
X58918D01*
X59377Y148015D01*
Y148934D01*
X58918Y149393D01*
X72123Y155056D02*
X74878D01*
Y156434D01*
X74418Y156893D01*
X73500D01*
X73041Y156434D01*
Y155056D01*
Y155975D02*
X72123Y156893D01*
Y157811D02*
Y158730D01*
Y158270D01*
X74878D01*
X74418Y157811D01*
X72123Y161944D02*
Y160107D01*
X73959Y161944D01*
X74418D01*
X74878Y161485D01*
Y160566D01*
X74418Y160107D01*
X23410Y142485D02*
X20655D01*
Y141107D01*
X21114Y140648D01*
X22032D01*
X22492Y141107D01*
Y142485D01*
Y141566D02*
X23410Y140648D01*
Y139730D02*
Y138811D01*
Y139270D01*
X20655D01*
X21114Y139730D01*
X23410Y137434D02*
Y136515D01*
Y136975D01*
X20655D01*
X21114Y137434D01*
X18622Y145556D02*
X21377D01*
Y146934D01*
X20918Y147393D01*
X20000D01*
X19541Y146934D01*
Y145556D01*
Y146475D02*
X18622Y147393D01*
Y148311D02*
Y149230D01*
Y148770D01*
X21377D01*
X20918Y148311D01*
Y150607D02*
X21377Y151066D01*
Y151985D01*
X20918Y152444D01*
X19082D01*
X18622Y151985D01*
Y151066D01*
X19082Y150607D01*
X20918D01*
X108796Y94622D02*
Y97378D01*
X107418D01*
X106959Y96918D01*
Y96000D01*
X107418Y95541D01*
X108796D01*
X107878D02*
X106959Y94622D01*
X106041Y95082D02*
X105582Y94622D01*
X104663D01*
X104204Y95082D01*
Y96918D01*
X104663Y97378D01*
X105582D01*
X106041Y96918D01*
Y96459D01*
X105582Y96000D01*
X104204D01*
X131623Y94704D02*
X134378D01*
Y96082D01*
X133918Y96541D01*
X133000D01*
X132541Y96082D01*
Y94704D01*
Y95622D02*
X131623Y96541D01*
X133918Y97459D02*
X134378Y97918D01*
Y98837D01*
X133918Y99296D01*
X133459D01*
X133000Y98837D01*
X132541Y99296D01*
X132082D01*
X131623Y98837D01*
Y97918D01*
X132082Y97459D01*
X132541D01*
X133000Y97918D01*
X133459Y97459D01*
X133918D01*
X133000Y97918D02*
Y98837D01*
X115877Y102796D02*
X113122D01*
Y101418D01*
X113582Y100959D01*
X114500D01*
X114959Y101418D01*
Y102796D01*
Y101877D02*
X115877Y100959D01*
X113122Y100041D02*
Y98204D01*
X113582D01*
X115418Y100041D01*
X115877D01*
X17623Y130204D02*
X20378D01*
Y131582D01*
X19918Y132041D01*
X19000D01*
X18541Y131582D01*
Y130204D01*
Y131123D02*
X17623Y132041D01*
X20378Y134796D02*
X19918Y133878D01*
X19000Y132959D01*
X18082D01*
X17623Y133418D01*
Y134337D01*
X18082Y134796D01*
X18541D01*
X19000Y134337D01*
Y132959D01*
X98796Y145623D02*
Y148378D01*
X97418D01*
X96959Y147918D01*
Y147000D01*
X97418Y146541D01*
X98796D01*
X97878D02*
X96959Y145623D01*
X94204Y148378D02*
X96041D01*
Y147000D01*
X95122Y147459D01*
X94663D01*
X94204Y147000D01*
Y146082D01*
X94663Y145623D01*
X95582D01*
X96041Y146082D01*
X108796Y148123D02*
Y150877D01*
X107418D01*
X106959Y150418D01*
Y149500D01*
X107418Y149041D01*
X108796D01*
X107878D02*
X106959Y148123D01*
X104663D02*
Y150877D01*
X106041Y149500D01*
X104204D01*
X24337Y35877D02*
X25255D01*
X24796D01*
Y33582D01*
X25255Y33123D01*
X25714D01*
X26173Y33582D01*
X23418Y33123D02*
Y35877D01*
X22041D01*
X21582Y35418D01*
Y34500D01*
X22041Y34041D01*
X23418D01*
X18827Y35877D02*
X20663D01*
Y34500D01*
X19745Y34959D01*
X19286D01*
X18827Y34500D01*
Y33582D01*
X19286Y33123D01*
X20204D01*
X20663Y33582D01*
X30878Y115377D02*
X31796D01*
X31337D01*
Y113082D01*
X31796Y112622D01*
X32255D01*
X32714Y113082D01*
X29959Y112622D02*
Y115377D01*
X28582D01*
X28122Y114918D01*
Y114000D01*
X28582Y113541D01*
X29959D01*
X27204Y112622D02*
X26286D01*
X26745D01*
Y115377D01*
X27204Y114918D01*
X44337Y79878D02*
X45255D01*
X44796D01*
Y77582D01*
X45255Y77122D01*
X45714D01*
X46173Y77582D01*
X43418Y77122D02*
Y79878D01*
X42041D01*
X41582Y79418D01*
Y78500D01*
X42041Y78041D01*
X43418D01*
X39286Y77122D02*
Y79878D01*
X40663Y78500D01*
X38827D01*
X152918Y115893D02*
X153377Y115434D01*
Y114515D01*
X152918Y114056D01*
X151082D01*
X150622Y114515D01*
Y115434D01*
X151082Y115893D01*
X150622Y116811D02*
Y117730D01*
Y117270D01*
X153377D01*
X152918Y116811D01*
Y119107D02*
X153377Y119566D01*
Y120485D01*
X152918Y120944D01*
X152459D01*
X152000Y120485D01*
Y120025D01*
Y120485D01*
X151541Y120944D01*
X151082D01*
X150622Y120485D01*
Y119566D01*
X151082Y119107D01*
X140582Y137607D02*
X140122Y138066D01*
Y138985D01*
X140582Y139444D01*
X142418D01*
X142877Y138985D01*
Y138066D01*
X142418Y137607D01*
X142877Y136689D02*
Y135770D01*
Y136230D01*
X140122D01*
X140582Y136689D01*
X142877Y132556D02*
Y134393D01*
X141041Y132556D01*
X140582D01*
X140122Y133015D01*
Y133934D01*
X140582Y134393D01*
X144418Y115352D02*
X144878Y114893D01*
Y113975D01*
X144418Y113515D01*
X142582D01*
X142122Y113975D01*
Y114893D01*
X142582Y115352D01*
X142122Y116270D02*
Y117189D01*
Y116730D01*
X144878D01*
X144418Y116270D01*
X142122Y118566D02*
Y119485D01*
Y119025D01*
X144878D01*
X144418Y118566D01*
X106107Y86918D02*
X106566Y87378D01*
X107485D01*
X107944Y86918D01*
Y85082D01*
X107485Y84623D01*
X106566D01*
X106107Y85082D01*
X105189Y84623D02*
X104270D01*
X104730D01*
Y87378D01*
X105189Y86918D01*
X102893D02*
X102434Y87378D01*
X101515D01*
X101056Y86918D01*
Y85082D01*
X101515Y84623D01*
X102434D01*
X102893Y85082D01*
Y86918D01*
X145959Y102418D02*
X146418Y102877D01*
X147337D01*
X147796Y102418D01*
Y100582D01*
X147337Y100122D01*
X146418D01*
X145959Y100582D01*
X145041Y102418D02*
X144582Y102877D01*
X143663D01*
X143204Y102418D01*
Y101959D01*
X143663Y101500D01*
X143204Y101041D01*
Y100582D01*
X143663Y100122D01*
X144582D01*
X145041Y100582D01*
Y101041D01*
X144582Y101500D01*
X145041Y101959D01*
Y102418D01*
X144582Y101500D02*
X143663D01*
X121459Y145918D02*
X121918Y146378D01*
X122837D01*
X123296Y145918D01*
Y144082D01*
X122837Y143623D01*
X121918D01*
X121459Y144082D01*
X120541Y146378D02*
X118704D01*
Y145918D01*
X120541Y144082D01*
Y143623D01*
X99959Y24582D02*
X100418Y24123D01*
X101337D01*
X101796Y24582D01*
Y26418D01*
X101337Y26877D01*
X100418D01*
X99959Y26418D01*
X99041Y24582D02*
X98582Y24123D01*
X97663D01*
X97204Y24582D01*
Y25041D01*
X97663Y25500D01*
X98123D01*
X97663D01*
X97204Y25959D01*
Y26418D01*
X97663Y26877D01*
X98582D01*
X99041Y26418D01*
X104459Y18918D02*
X104918Y19377D01*
X105837D01*
X106296Y18918D01*
Y17082D01*
X105837Y16623D01*
X104918D01*
X104459Y17082D01*
X101704Y16623D02*
X103541D01*
X101704Y18459D01*
Y18918D01*
X102163Y19377D01*
X103082D01*
X103541Y18918D01*
X131500Y18418D02*
X131959Y18878D01*
X132878D01*
X133337Y18418D01*
Y16582D01*
X132878Y16123D01*
X131959D01*
X131500Y16582D01*
X130582Y16123D02*
X129663D01*
X130122D01*
Y18878D01*
X130582Y18418D01*
D24*
X152000Y50500D02*
Y56498D01*
X149001D01*
X148001Y55498D01*
Y53499D01*
X149001Y52499D01*
X152000D01*
X150001D02*
X148001Y50500D01*
X143003D02*
X145002D01*
X146002Y51500D01*
Y53499D01*
X145002Y54499D01*
X143003D01*
X142003Y53499D01*
Y52499D01*
X146002D01*
X140004Y54499D02*
X138005Y50500D01*
X136005Y54499D01*
X130007Y50500D02*
X134006D01*
X130007Y54499D01*
Y55498D01*
X131007Y56498D01*
X133006D01*
X134006Y55498D01*
X148501Y63998D02*
X149501Y64998D01*
X151500D01*
X152500Y63998D01*
Y62999D01*
X151500Y61999D01*
X149501D01*
X148501Y60999D01*
Y60000D01*
X149501Y59000D01*
X151500D01*
X152500Y60000D01*
X143503Y59000D02*
X145502D01*
X146502Y60000D01*
Y61999D01*
X145502Y62999D01*
X143503D01*
X142503Y61999D01*
Y60999D01*
X146502D01*
X140504Y59000D02*
Y62999D01*
X137505D01*
X136505Y61999D01*
Y59000D01*
X134506D02*
X131507D01*
X130507Y60000D01*
X131507Y60999D01*
X133506D01*
X134506Y61999D01*
X133506Y62999D01*
X130507D01*
X127508Y59000D02*
X125509D01*
X124509Y60000D01*
Y61999D01*
X125509Y62999D01*
X127508D01*
X128508Y61999D01*
Y60000D01*
X127508Y59000D01*
X122510Y62999D02*
Y59000D01*
Y60999D01*
X121510Y61999D01*
X120510Y62999D01*
X119511D01*
X110514Y59000D02*
Y64998D01*
X107515D01*
X106515Y63998D01*
Y61999D01*
X107515Y60999D01*
X110514D01*
X100517Y63998D02*
X101516Y64998D01*
X103516D01*
X104516Y63998D01*
Y60000D01*
X103516Y59000D01*
X101516D01*
X100517Y60000D01*
X98518Y64998D02*
Y59000D01*
X95518D01*
X94519Y60000D01*
Y60999D01*
X95518Y61999D01*
X98518D01*
X95518D01*
X94519Y62999D01*
Y63998D01*
X95518Y64998D01*
X98518D01*
X152000Y67999D02*
Y73997D01*
X149001D01*
X148001Y72998D01*
Y70998D01*
X149001Y69999D01*
X152000D01*
X146002Y71998D02*
Y67999D01*
Y69999D01*
X145002Y70998D01*
X144003Y71998D01*
X143003D01*
X139004Y67999D02*
X137005D01*
X136005Y68999D01*
Y70998D01*
X137005Y71998D01*
X139004D01*
X140004Y70998D01*
Y68999D01*
X139004Y67999D01*
X134006Y66000D02*
X133006D01*
X132007Y67000D01*
Y71998D01*
X128008Y67999D02*
X126008D01*
X127008D01*
Y73997D01*
X128008Y72998D01*
X123009Y67999D02*
X121010D01*
X122010D01*
Y73997D01*
X123009Y72998D01*
X118011Y70998D02*
X114012D01*
D82*
X110697Y24579D02*
X110209D01*
X110697D01*
M02*
