G04*
G04 #@! TF.GenerationSoftware,Altium Limited,Altium Designer,24.2.2 (26)*
G04*
G04 Layer_Color=8388736*
%FSLAX25Y25*%
%MOIN*%
G70*
G04*
G04 #@! TF.SameCoordinates,53DEB4DB-F542-4CE3-904C-AAE6CCE40F42*
G04*
G04*
G04 #@! TF.FilePolarity,Negative*
G04*
G01*
G75*
%ADD13R,0.04737X0.03950*%
%ADD14R,0.00800X0.00800*%
%ADD15C,0.07099*%
G04:AMPARAMS|DCode=16|XSize=70.99mil|YSize=70.99mil|CornerRadius=19.75mil|HoleSize=0mil|Usage=FLASHONLY|Rotation=270.000|XOffset=0mil|YOffset=0mil|HoleType=Round|Shape=RoundedRectangle|*
%AMROUNDEDRECTD16*
21,1,0.07099,0.03150,0,0,270.0*
21,1,0.03150,0.07099,0,0,270.0*
1,1,0.03950,-0.01575,-0.01575*
1,1,0.03950,-0.01575,0.01575*
1,1,0.03950,0.01575,0.01575*
1,1,0.03950,0.01575,-0.01575*
%
%ADD16ROUNDEDRECTD16*%
%ADD17R,0.06181X0.06181*%
%ADD18C,0.06181*%
%ADD19C,0.06902*%
%ADD20R,0.06902X0.06902*%
%ADD21C,0.05800*%
%ADD22C,0.18517*%
%ADD23C,0.02769*%
D13*
X17500Y43453D02*
D03*
Y37547D02*
D03*
X27500Y43453D02*
D03*
Y37547D02*
D03*
D14*
X55500Y31614D02*
D03*
Y59173D02*
D03*
X42843Y160972D02*
D03*
Y133413D02*
D03*
D15*
X23500Y16000D02*
D03*
D16*
Y26000D02*
D03*
D17*
X99500Y157500D02*
D03*
D18*
X109500D02*
D03*
X119500D02*
D03*
X129500D02*
D03*
X139500D02*
D03*
X149500D02*
D03*
D19*
X85000Y26000D02*
D03*
Y36000D02*
D03*
Y46000D02*
D03*
Y56000D02*
D03*
Y66000D02*
D03*
Y76000D02*
D03*
Y86000D02*
D03*
Y96000D02*
D03*
Y106000D02*
D03*
Y116000D02*
D03*
Y126000D02*
D03*
Y146000D02*
D03*
X6500Y124500D02*
D03*
Y114500D02*
D03*
Y104500D02*
D03*
Y94500D02*
D03*
Y84500D02*
D03*
Y74500D02*
D03*
Y64500D02*
D03*
Y54500D02*
D03*
Y44500D02*
D03*
Y34500D02*
D03*
Y24500D02*
D03*
Y14500D02*
D03*
X85000Y16000D02*
D03*
Y136000D02*
D03*
Y156000D02*
D03*
D20*
Y166000D02*
D03*
D21*
X94000Y90500D02*
D03*
X118500Y91000D02*
D03*
X94000Y104949D02*
D03*
X70000Y148000D02*
D03*
X148000Y108000D02*
D03*
X98500Y43000D02*
D03*
X131000Y29000D02*
D03*
X65500Y110500D02*
D03*
X50000Y113000D02*
D03*
X61500Y102000D02*
D03*
X37500Y37000D02*
D03*
X26000Y130000D02*
D03*
X21500Y51500D02*
D03*
X17500Y121000D02*
D03*
D22*
X12000Y173000D02*
D03*
X145500D02*
D03*
Y20000D02*
D03*
D23*
X107000Y25000D02*
D03*
X131500Y110500D02*
D03*
X133000Y119000D02*
D03*
X135500Y123500D02*
D03*
M02*
