G04*
G04 #@! TF.GenerationSoftware,Altium Limited,Altium Designer,24.2.2 (26)*
G04*
G04 Layer_Physical_Order=1*
G04 Layer_Color=255*
%FSLAX25Y25*%
%MOIN*%
G70*
G04*
G04 #@! TF.SameCoordinates,53DEB4DB-F542-4CE3-904C-AAE6CCE40F42*
G04*
G04*
G04 #@! TF.FilePolarity,Positive*
G04*
G01*
G75*
%ADD11C,0.00787*%
%ADD17R,0.06181X0.06181*%
%ADD18C,0.06181*%
%ADD24C,0.01000*%
%ADD25R,0.03937X0.03150*%
%ADD26C,0.06299*%
G04:AMPARAMS|DCode=27|XSize=62.99mil|YSize=62.99mil|CornerRadius=15.75mil|HoleSize=0mil|Usage=FLASHONLY|Rotation=270.000|XOffset=0mil|YOffset=0mil|HoleType=Round|Shape=RoundedRectangle|*
%AMROUNDEDRECTD27*
21,1,0.06299,0.03150,0,0,270.0*
21,1,0.03150,0.06299,0,0,270.0*
1,1,0.03150,-0.01575,-0.01575*
1,1,0.03150,-0.01575,0.01575*
1,1,0.03150,0.01575,0.01575*
1,1,0.03150,0.01575,-0.01575*
%
%ADD27ROUNDEDRECTD27*%
%ADD28C,0.06102*%
%ADD29R,0.06102X0.06102*%
%ADD30C,0.05000*%
%ADD31C,0.17717*%
%ADD32C,0.01968*%
D11*
X79500Y52000D02*
X85000Y46500D01*
Y46000D02*
Y46500D01*
X79461Y52000D02*
X79500D01*
X79000Y52461D02*
X79461Y52000D01*
X79000Y52461D02*
Y57039D01*
X82961Y61000D01*
X87500D01*
X90500Y64000D01*
X86936Y80500D02*
X90500Y76936D01*
Y64000D02*
Y76936D01*
X81500Y80500D02*
X86936D01*
X77500Y84500D02*
X81500Y80500D01*
X77500Y84500D02*
Y95500D01*
X83060Y101060D01*
X89646D01*
X90060Y101060D02*
X94000Y104949D01*
D17*
X99500Y157500D02*
D03*
D18*
X109500D02*
D03*
X119500D02*
D03*
X129500D02*
D03*
X139500D02*
D03*
X149500D02*
D03*
D24*
X85681Y110500D02*
X84319D01*
X85551Y96551D02*
X89551D01*
X85000Y96000D02*
X85551Y96551D01*
X89551D02*
X90500Y97500D01*
X103250D01*
X104750Y96000D01*
X92343Y94500D02*
X96500D01*
X99750Y91250D01*
X85976Y56976D02*
X89476D01*
X85000Y56000D02*
X85976Y56976D01*
X89476D02*
X94000Y61500D01*
Y90500D01*
X85000Y86000D02*
Y87157D01*
X92343Y94500D01*
X99750Y89250D02*
Y91250D01*
Y89250D02*
X103000Y86000D01*
X135000D01*
X104750Y96000D02*
X130000D01*
X143500Y109500D01*
X81119Y78500D02*
X83619Y76000D01*
X85000D01*
X79343Y78500D02*
X81119D01*
X50000Y107843D02*
X79343Y78500D01*
X85681Y110500D02*
X131500D01*
X65500D02*
X84319D01*
X103914Y103500D02*
X130000D01*
X89646Y101060D02*
X90060Y101060D01*
X85000Y106000D02*
X92343Y108949D01*
X95657D02*
X103914Y103500D01*
X92343Y108949D02*
X95657D01*
X139500Y157500D02*
X143500Y153500D01*
Y109500D02*
Y153500D01*
X149500Y143781D02*
Y157500D01*
X70000Y148000D02*
X76940Y141060D01*
Y137624D02*
Y141060D01*
Y137624D02*
X83115Y131449D01*
X120551D01*
X23500Y26000D02*
X28000Y21500D01*
X74500D01*
X74551Y21449D01*
X103449D01*
X107000Y25000D01*
X61500Y102000D02*
Y114500D01*
X50000Y107843D02*
Y113000D01*
X63000Y116000D02*
X85000D01*
X46287Y120551D02*
X86885D01*
X61500Y114500D02*
X63000Y116000D01*
X86885Y120551D02*
X91936Y115500D01*
X17500Y43453D02*
X17894D01*
X18969Y44528D02*
Y44921D01*
X21500Y47453D01*
Y51500D02*
X26032Y46968D01*
X21500Y47453D02*
Y51500D01*
X17894Y43453D02*
X18969Y44528D01*
X27106Y43453D02*
X27500D01*
X26032Y44528D02*
Y46968D01*
Y44528D02*
X27106Y43453D01*
X133500Y115500D02*
X135500Y117500D01*
X152500Y103500D02*
Y116500D01*
X147500Y121500D02*
X152500Y116500D01*
X135000Y86000D02*
X152500Y103500D01*
X130000D02*
X139000Y112500D01*
X147500Y141781D02*
X149500Y143781D01*
X129500Y142549D02*
X139000Y133049D01*
X147500Y121500D02*
Y141781D01*
X129500Y142549D02*
Y157500D01*
X91936Y115500D02*
X133500D01*
X26000Y130000D02*
X36838D01*
X17500Y22000D02*
Y37547D01*
X139000Y112500D02*
Y133049D01*
X135500Y117500D02*
Y123500D01*
X120551Y131449D02*
X133000Y119000D01*
X17500Y22000D02*
X23500Y16000D01*
X36838Y130000D02*
X46287Y120551D01*
X23500Y26000D02*
X27500Y30000D01*
Y37547D01*
D25*
X17500Y43453D02*
D03*
Y37547D02*
D03*
X27500Y43453D02*
D03*
Y37547D02*
D03*
D26*
X23500Y16000D02*
D03*
D27*
Y26000D02*
D03*
D28*
X85000D02*
D03*
Y36000D02*
D03*
Y46000D02*
D03*
Y56000D02*
D03*
Y66000D02*
D03*
Y76000D02*
D03*
Y86000D02*
D03*
Y96000D02*
D03*
Y106000D02*
D03*
Y116000D02*
D03*
Y126000D02*
D03*
Y146000D02*
D03*
X6500Y124500D02*
D03*
Y114500D02*
D03*
Y104500D02*
D03*
Y94500D02*
D03*
Y84500D02*
D03*
Y74500D02*
D03*
Y64500D02*
D03*
Y54500D02*
D03*
Y44500D02*
D03*
Y34500D02*
D03*
Y24500D02*
D03*
Y14500D02*
D03*
X85000Y16000D02*
D03*
Y136000D02*
D03*
Y156000D02*
D03*
D29*
Y166000D02*
D03*
D30*
X94000Y90500D02*
D03*
X118500Y91000D02*
D03*
X94000Y104949D02*
D03*
X70000Y148000D02*
D03*
X148000Y108000D02*
D03*
X98500Y43000D02*
D03*
X131000Y29000D02*
D03*
X65500Y110500D02*
D03*
X50000Y113000D02*
D03*
X61500Y102000D02*
D03*
X37500Y37000D02*
D03*
X26000Y130000D02*
D03*
X21500Y51500D02*
D03*
X17500Y121000D02*
D03*
D31*
X12000Y173000D02*
D03*
X145500D02*
D03*
Y20000D02*
D03*
D32*
X107000Y25000D02*
D03*
X131500Y110500D02*
D03*
X133000Y119000D02*
D03*
X135500Y123500D02*
D03*
M02*
