G04*
G04 #@! TF.GenerationSoftware,Altium Limited,Altium Designer,24.2.2 (26)*
G04*
G04 Layer_Color=65535*
%FSLAX25Y25*%
%MOIN*%
G70*
G04*
G04 #@! TF.SameCoordinates,53DEB4DB-F542-4CE3-904C-AAE6CCE40F42*
G04*
G04*
G04 #@! TF.FilePolarity,Positive*
G04*
G01*
G75*
%ADD10C,0.00984*%
%ADD11C,0.00787*%
%ADD12C,0.00602*%
D10*
X99992Y150216D02*
X99254Y150643D01*
Y149790D01*
X99992Y150216D01*
D11*
X94008Y162894D02*
X154992D01*
Y152106D02*
Y162894D01*
X94008Y152106D02*
X154992D01*
X94008D02*
Y162894D01*
X104500Y152106D02*
Y162894D01*
X90000Y10252D02*
Y171748D01*
X80000D02*
X90000D01*
X80000Y10252D02*
Y171748D01*
Y10252D02*
X90000D01*
D12*
X29204Y46123D02*
Y48878D01*
X30582D01*
X31041Y48418D01*
Y47500D01*
X30582Y47041D01*
X29204D01*
X30123D02*
X31041Y46123D01*
X33796D02*
X31959D01*
X33796Y47959D01*
Y48418D01*
X33337Y48878D01*
X32418D01*
X31959Y48418D01*
X13663Y46123D02*
Y48878D01*
X15041D01*
X15500Y48418D01*
Y47500D01*
X15041Y47041D01*
X13663D01*
X14582D02*
X15500Y46123D01*
X16418D02*
X17337D01*
X16878D01*
Y48878D01*
X16418Y48418D01*
X9163Y135378D02*
X8245D01*
X8704D01*
Y133082D01*
X8245Y132623D01*
X7786D01*
X7327Y133082D01*
X10082Y132623D02*
Y135378D01*
X11459D01*
X11918Y134918D01*
Y134000D01*
X11459Y133541D01*
X10082D01*
X12837Y134918D02*
X13296Y135378D01*
X14214D01*
X14673Y134918D01*
Y134459D01*
X14214Y134000D01*
X13755D01*
X14214D01*
X14673Y133541D01*
Y133082D01*
X14214Y132623D01*
X13296D01*
X12837Y133082D01*
X82663Y178877D02*
X81745D01*
X82204D01*
Y176582D01*
X81745Y176122D01*
X81286D01*
X80827Y176582D01*
X83582Y176122D02*
Y178877D01*
X84959D01*
X85418Y178418D01*
Y177500D01*
X84959Y177041D01*
X83582D01*
X88173Y176122D02*
X86337D01*
X88173Y177959D01*
Y178418D01*
X87714Y178877D01*
X86796D01*
X86337Y178418D01*
X114663Y169378D02*
X113745D01*
X114204D01*
Y167082D01*
X113745Y166622D01*
X113286D01*
X112827Y167082D01*
X115582Y166622D02*
Y169378D01*
X116959D01*
X117418Y168918D01*
Y168000D01*
X116959Y167541D01*
X115582D01*
X120173Y169378D02*
X119255Y168918D01*
X118337Y168000D01*
Y167082D01*
X118796Y166622D01*
X119714D01*
X120173Y167082D01*
Y167541D01*
X119714Y168000D01*
X118337D01*
M02*
