M48
;Layer_Color=9474304
;FILE_FORMAT=2:4
INCH,TZ
;TYPE=PLATED
T01F00S00C0.0098
T02F00S00C0.0280
T03F00S00C0.0402
T04F00S00C0.0433
T05F00S00C0.1260
;TYPE=NON_PLATED
T06F00S00C0.0630
%
T01
X10700Y2500
X13150Y11050
X13300Y11900
X13550Y12350
T02
X2150Y5150
X3750Y3700
X9850Y4300
X13100Y2900
X11850Y9100
X9400Y9050
Y10495
X6550Y11050
X6150Y10200
X5000Y11300
X1750Y12100
X2600Y13000
X7000Y14800
X14800Y10800
T03
X650Y1450
Y2450
Y3450
Y4450
Y5450
Y6450
Y7450
Y8450
Y9450
Y10450
Y11450
Y12450
X8500Y12600
Y11600
Y10600
Y9600
Y8600
Y7600
Y6600
Y5600
Y4600
Y3600
Y2600
Y1600
Y13600
Y14600
Y15600
Y16600
X9950Y15750
X10950
X11950
X12950
X13950
X14950
T04
X2350Y1600
Y2600
T05
X14550Y2000
Y17300
X1200
T06
X5550Y3161
Y5917
X4284Y13341
Y16097
M30
